#tb 0: 71/1000
0,          0,          0,        1,   921600, 0x8a5d15df
0,          1,          1,        1,   921600, 0x92c01362
0,          2,          2,        1,   921600, 0xe1a31643
0,          3,          3,        1,   921600, 0x37a90fe2
0,          4,          4,        1,   921600, 0x74410783
0,          5,          5,        1,   921600, 0xecf4ef1a
0,          6,          6,        1,   921600, 0x4d7ff3d4
0,          7,          7,        1,   921600, 0xac820317
0,          8,          8,        1,   921600, 0xbe5ff56e
0,          9,          9,        1,   921600, 0x8e59c329
0,         10,         10,        1,   921600, 0x73bf23f3
0,         11,         11,        1,   921600, 0xb90c780f
0,         12,         12,        1,   921600, 0xfbd9dc32
0,         13,         13,        1,   921600, 0x30586821
0,         14,         14,        1,   921600, 0x6695195b
0,         15,         15,        1,   921600, 0xc449aa85
0,         16,         16,        1,   921600, 0xca6a391c
